<?xml version="1.0" encoding="UTF-8" standalone="no"?>
<!-- Created with Inkscape (http://www.inkscape.org/) -->

<svg
   width="17.57572mm"
   height="16.589273mm"
   viewBox="0 0 17.57572 16.589273"
   version="1.1"
   id="svg15898"
   inkscape:version="1.1.2 (b8e25be833, 2022-02-05)"
   sodipodi:docname="Barn.svg"
   xmlns:inkscape="http://www.inkscape.org/namespaces/inkscape"
   xmlns:sodipodi="http://sodipodi.sourceforge.net/DTD/sodipodi-0.dtd"
   xmlns="http://www.w3.org/2000/svg"
   xmlns:svg="http://www.w3.org/2000/svg">
  <sodipodi:namedview
     id="namedview15900"
     pagecolor="#ffffff"
     bordercolor="#666666"
     borderopacity="1.0"
     inkscape:pageshadow="2"
     inkscape:pageopacity="0.0"
     inkscape:pagecheckerboard="0"
     inkscape:document-units="mm"
     showgrid="false"
     inkscape:zoom="0.733172"
     inkscape:cx="-61.37714"
     inkscape:cy="47.737775"
     inkscape:window-width="1920"
     inkscape:window-height="1009"
     inkscape:window-x="-8"
     inkscape:window-y="-8"
     inkscape:window-maximized="1"
     inkscape:current-layer="layer1" />
  <defs
     id="defs15895">
    <clipPath
       clipPathUnits="userSpaceOnUse"
       id="clipPath15537">
      <path
         d="M 444.75,459.75 H 504 V 519 h -59.25 z"
         clip-rule="evenodd"
         id="path15535" />
    </clipPath>
    <clipPath
       clipPathUnits="userSpaceOnUse"
       id="clipPath15547">
      <path
         d="M 0,0 H 72.761 V 72.764 H 0 Z"
         id="path15545" />
    </clipPath>
  </defs>
  <g
     inkscape:label="Layer 1"
     inkscape:groupmode="layer"
     id="layer1"
     transform="translate(-121.12709,-136.0553)">
    <g
       id="g15531"
       transform="matrix(0.35277777,0,0,-0.35277777,-37.43845,316.87855)">
      <g
         id="g15533"
         clip-path="url(#clipPath15537)">
        <g
           id="g15539"
           transform="matrix(0.82292,0,-3.77e-7,0.82292,444.75,459.75)">
          <g
             id="g15541"
             transform="scale(0.98955,0.9895)">
            <g
               id="g15543"
               clip-path="url(#clipPath15547)">
              <path
                 d="m 26.647,35.617 h 19.5 v 13.5 h -19.5 z m 1.5,12 h 16.5 v -10.5 h -16.5 z"
                 style="fill:#000000;fill-opacity:1;fill-rule:nonzero;stroke:none"
                 id="path15549" />
              <path
                 d="M 66.986,34.396 58.488,55.492 36.346,64.867 14.216,55.408 5.805,34.398 9.3968,30.806 V 7.1169 H 63.397 V 30.806 Z M 15.377,54.271 36.349,63.239 57.329,54.357 65.224,34.755 62.919,32.45 55.012,52.08 36.355,59.978 17.699,52.004 9.873,32.451 7.566,34.759 Z M 34.873,17.617 19.897,9.1524 V 26.081 Z M 36.397,16.755 50.77,8.6312 C 50.774,8.6294 50.776,8.625 50.774,8.6212 50.773,8.6184 50.77,8.6167 50.767,8.6169 h -28.74 c -0.004,0.0013 -0.006,0.0056 -0.005,0.0095 0.001,0.0022 0.003,0.004 0.005,0.0048 z m 1.524,0.862 14.976,8.464 V 9.1524 Z m -1.524,0.862 -14.374,8.124 c -0.004,10e-4 -0.006,0.005 -0.005,0.009 10e-4,0.002 0.003,0.004 0.005,0.005 h 28.744 c 0.004,0 0.007,-0.003 0.008,-0.007 0,-0.003 -0.002,-0.006 -0.005,-0.007 z m 25.5,-9.8621 h -7.5 V 28.117 h -36 V 8.6169 h -7.5 V 30.972 l 7.964,19.897 17.497,7.479 17.495,-7.406 8.044,-19.971 z"
                 style="fill:#000000;fill-opacity:1;fill-rule:nonzero;stroke:none"
                 id="path15551" />
            </g>
          </g>
        </g>
      </g>
    </g>
  </g>
</svg>
