<?xml version="1.0" encoding="UTF-8" standalone="no"?>
<!-- Created with Inkscape (http://www.inkscape.org/) -->

<svg
   width="5.5327997mm"
   height="4.6149302mm"
   viewBox="0 0 5.5327997 4.6149302"
   version="1.1"
   id="svg921"
   inkscape:version="1.1.2 (b8e25be833, 2022-02-05)"
   sodipodi:docname="Hjärta.svg"
   inkscape:export-filename="C:\Users\Johan Lepik\OneDrive\Bröllop\Inbjudan\path4099.png"
   inkscape:export-xdpi="96"
   inkscape:export-ydpi="96"
   xmlns:inkscape="http://www.inkscape.org/namespaces/inkscape"
   xmlns:sodipodi="http://sodipodi.sourceforge.net/DTD/sodipodi-0.dtd"
   xmlns="http://www.w3.org/2000/svg"
   xmlns:svg="http://www.w3.org/2000/svg">
  <sodipodi:namedview
     id="namedview923"
     pagecolor="#ffffff"
     bordercolor="#666666"
     borderopacity="1.0"
     inkscape:pageshadow="2"
     inkscape:pageopacity="0.0"
     inkscape:pagecheckerboard="0"
     inkscape:document-units="mm"
     showgrid="false"
     inkscape:zoom="32"
     inkscape:cx="10.8125"
     inkscape:cy="7.796875"
     inkscape:window-width="1920"
     inkscape:window-height="991"
     inkscape:window-x="-9"
     inkscape:window-y="-9"
     inkscape:window-maximized="1"
     inkscape:current-layer="layer1" />
  <defs
     id="defs918" />
  <g
     inkscape:label="Layer 1"
     inkscape:groupmode="layer"
     id="layer1"
     transform="translate(-92.511796,-153.64391)">
    <path
       style="fill:#000000;stroke:#000000;stroke-width:0.03263"
       d="m 95.159165,158.18608 c -0.292738,-0.18092 -0.615594,-0.42394 -0.884376,-0.68292 -0.363314,-0.27807 -0.692601,-0.59972 -1.022487,-0.91459 -0.32683,-0.38514 -0.710324,-0.79723 -0.723646,-1.33317 -0.01132,-0.46174 0.153523,-0.95268 0.527879,-1.24375 0.226549,-0.21526 0.535488,-0.3473 0.857384,-0.35142 0.328461,0.006 0.673318,0.16425 0.897694,0.37419 0.119835,0.11213 0.434781,0.38024 0.434781,0.38024 0,0 0.05178,-0.0224 0.241658,-0.20077 0.326255,-0.30643 0.845628,-0.61917 1.33202,-0.53105 0.796255,0.17743 1.410739,1.07683 1.145376,1.8789 -0.143986,0.44396 -0.489748,0.77939 -0.788774,1.12318 -0.43142,0.43588 -0.917897,0.812 -1.392144,1.1991 -0.181806,0.1492 -0.506377,0.35694 -0.506377,0.35694 -0.0473,-0.0152 -0.08543,-0.0341 -0.118988,-0.0549 z"
       id="path4099"
       sodipodi:nodetypes="scccccccscccccs" />
  </g>
</svg>
