<?xml version="1.0" encoding="UTF-8" standalone="no"?>
<!-- Created with Inkscape (http://www.inkscape.org/) -->

<svg
   width="11.064699mm"
   height="24.086113mm"
   viewBox="0 0 11.064699 24.086113"
   version="1.1"
   id="svg16064"
   inkscape:version="1.1.2 (b8e25be833, 2022-02-05)"
   sodipodi:docname="Child.svg"
   xmlns:inkscape="http://www.inkscape.org/namespaces/inkscape"
   xmlns:sodipodi="http://sodipodi.sourceforge.net/DTD/sodipodi-0.dtd"
   xmlns="http://www.w3.org/2000/svg"
   xmlns:svg="http://www.w3.org/2000/svg">
  <sodipodi:namedview
     id="namedview16066"
     pagecolor="#ffffff"
     bordercolor="#666666"
     borderopacity="1.0"
     inkscape:pageshadow="2"
     inkscape:pageopacity="0.0"
     inkscape:pagecheckerboard="0"
     inkscape:document-units="mm"
     showgrid="false"
     inkscape:zoom="0.733172"
     inkscape:cx="87.291932"
     inkscape:cy="235.961"
     inkscape:window-width="1920"
     inkscape:window-height="1009"
     inkscape:window-x="-8"
     inkscape:window-y="-8"
     inkscape:window-maximized="1"
     inkscape:current-layer="layer1" />
  <defs
     id="defs16061">
    <clipPath
       clipPathUnits="userSpaceOnUse"
       id="clipPath15559">
      <path
         d="m 743.25,453 h 72 v 72 h -72 z"
         clip-rule="evenodd"
         id="path15557" />
    </clipPath>
    <clipPath
       clipPathUnits="userSpaceOnUse"
       id="clipPath15569">
      <path
         d="M 0,0 H 72.761 V 72.764 H 0 Z"
         id="path15567" />
    </clipPath>
  </defs>
  <g
     inkscape:label="Layer 1"
     inkscape:groupmode="layer"
     id="layer1"
     transform="translate(-81.799366,-86.114901)">
    <g
       id="g15553"
       transform="matrix(0.35277777,0,0,-0.35277777,-187.86987,270.66103)">
      <g
         id="g15555"
         clip-path="url(#clipPath15559)">
        <g
           id="g15561"
           transform="translate(743.25,453)">
          <g
             id="g15563"
             transform="scale(0.98955,0.9895)">
            <g
               id="g15565"
               clip-path="url(#clipPath15569)">
              <path
                 d="m 33.902,32.617 c 3.107,0 5.625,2.518 5.625,5.625 0,3.107 -2.518,5.625 -5.625,5.625 -3.106,0 -5.625,-2.518 -5.625,-5.625 0.004,-3.105 2.52,-5.621 5.625,-5.625 z m 0,9.75 c 2.278,0 4.125,-1.847 4.125,-4.125 0,-2.278 -1.847,-4.125 -4.125,-4.125 -2.278,0 -4.125,1.847 -4.125,4.125 0.003,2.277 1.848,4.122 4.125,4.125 z"
                 style="fill:#000000;fill-opacity:1;fill-rule:nonzero;stroke:none"
                 id="path15571" />
              <path
                 d="m 53.086,64.45 c 0,3.778 -2.347,6.417 -5.708,6.417 -3.361,0 -5.708,-2.639 -5.708,-6.417 0,-3.344 2.538,-7.106 5.011,-7.733 -0.268,-2.135 -0.034,-4.304 0.684,-6.333 0.412,-1.185 0.671,-2.417 0.771,-3.667 0.153,-2.097 -0.203,-4.2 -1.038,-6.13 -0.057,-0.162 -0.118,-0.337 -0.177,-0.505 -0.823,-0.019 -1.604,-0.366 -2.169,-0.963 l -7.2,-7.569 h -3.45 l -1.291,-0.053 c -2.653,-0.286 -5.082,-1.618 -6.75,-3.7 -0.207,-0.265 -0.387,-0.551 -0.536,-0.852 l -0.282,-0.561 -3.605,-8.617 c -0.582,-1.34 -0.11,-2.905 1.117,-3.698 0.462,-0.284 0.994,-0.435 1.536,-0.437 0.414,0 0.75,0.336 0.75,0.75 0,0.414 -0.336,0.75 -0.75,0.75 -0.266,0.002 -0.527,0.076 -0.754,0.216 -0.597,0.406 -0.815,1.183 -0.516,1.84 l 3.585,8.572 0.259,0.51 c 0.104,0.212 0.23,0.413 0.375,0.6 1.401,1.757 3.441,2.886 5.674,3.14 l 1.222,0.049 h 4.061 l 7.641,8.028 c 0.523,0.586 1.409,0.669 2.032,0.191 0.596,-0.509 0.667,-1.405 0.158,-2.001 -0.016,-0.018 -0.033,-0.037 -0.05,-0.055 L 38.027,25.78 V 3.3669 H 34.652 V 15.367 h -1.5 V 3.3669 H 29.777 V 22.117 c 0,0.414 -0.336,0.75 -0.75,0.75 -0.414,0 -0.75,-0.336 -0.75,-0.75 V 1.8669 h 11.25 V 25.179 l 9.538,10.009 c 0.55,0.581 0.839,1.361 0.799,2.161 -0.037,0.8 -0.406,1.549 -1.017,2.068 -0.142,0.121 -0.295,0.228 -0.459,0.318 0.042,0.116 0.084,0.238 0.123,0.35 0.908,2.124 1.294,4.435 1.125,6.739 -0.108,1.364 -0.388,2.709 -0.834,4.003 -0.678,1.897 -0.886,3.93 -0.605,5.925 2.431,0.712 4.889,4.407 4.889,7.698 z m -9.916,0 c 0,2.941 1.691,4.917 4.208,4.917 2.517,0 4.208,-1.976 4.208,-4.917 0,-3.141 -2.7,-6.333 -4.208,-6.333 -1.508,0 -4.208,3.192 -4.208,6.333 z"
                 style="fill:#000000;fill-opacity:1;fill-rule:nonzero;stroke:none"
                 id="path15573" />
            </g>
          </g>
        </g>
      </g>
    </g>
  </g>
</svg>
