<?xml version="1.0" encoding="UTF-8" standalone="no"?>
<!-- Created with Inkscape (http://www.inkscape.org/) -->

<svg
   width="21.993578mm"
   height="25.947805mm"
   viewBox="0 0 21.993578 25.947805"
   version="1.1"
   id="svg15094"
   inkscape:version="1.1.2 (b8e25be833, 2022-02-05)"
   sodipodi:docname="Dress.svg"
   xmlns:inkscape="http://www.inkscape.org/namespaces/inkscape"
   xmlns:sodipodi="http://sodipodi.sourceforge.net/DTD/sodipodi-0.dtd"
   xmlns="http://www.w3.org/2000/svg"
   xmlns:svg="http://www.w3.org/2000/svg">
  <sodipodi:namedview
     id="namedview15096"
     pagecolor="#ffffff"
     bordercolor="#666666"
     borderopacity="1.0"
     inkscape:pageshadow="2"
     inkscape:pageopacity="0.0"
     inkscape:pagecheckerboard="0"
     inkscape:document-units="mm"
     showgrid="false"
     inkscape:zoom="0.733172"
     inkscape:cx="167.76418"
     inkscape:cy="115.9346"
     inkscape:window-width="1920"
     inkscape:window-height="1009"
     inkscape:window-x="-8"
     inkscape:window-y="-8"
     inkscape:window-maximized="1"
     inkscape:current-layer="layer1" />
  <defs
     id="defs15091">
    <clipPath
       clipPathUnits="userSpaceOnUse"
       id="clipPath14113">
      <path
         d="m 124.5,406.5 h 87 v 87 h -87 z"
         clip-rule="evenodd"
         id="path14111" />
    </clipPath>
    <clipPath
       clipPathUnits="userSpaceOnUse"
       id="clipPath14123">
      <path
         d="M 0,0 H 72.761 V 72.764 H 0 Z"
         id="path14121" />
    </clipPath>
  </defs>
  <g
     inkscape:label="Layer 1"
     inkscape:groupmode="layer"
     id="layer1"
     transform="translate(-60.456431,-118.02367)">
    <g
       id="g14107"
       transform="matrix(0.35277777,0,0,-0.35277777,12.18681,289.73717)">
      <g
         id="g14109"
         clip-path="url(#clipPath14113)">
        <g
           id="g14115"
           transform="matrix(1.2083,-3.77e-7,-1.88e-7,1.2083,124.5,406.5)">
          <g
             id="g14117"
             transform="scale(0.98955,0.9895)">
            <g
               id="g14119"
               clip-path="url(#clipPath14123)">
              <path
                 d="m 36.397,5.5989 c -10.526,0 -20.151,2.2388 -25.117,5.8451 -0.964,0.641 -1.256,1.925 -0.665,2.921 l 17.933,31.218 c 0.288,0.446 0.436,0.969 0.425,1.5 -0.013,0.268 -0.056,0.534 -0.127,0.793 l -2.296,8.516 c -0.029,0.041 -0.076,0.066 -0.127,0.067 l -6.15,-0.6 h -0.009 c -0.476,0.003 -0.908,0.28 -1.109,0.711 l -0.061,0.173 -1.344,6.048 c -0.153,0.53 0.11,1.091 0.615,1.312 l 0.075,0.033 5.7,2.1 c 1.574,0.568 3.233,0.866 4.907,0.881 h 0.6 c 0.801,0.027 1.472,-0.6 1.5,-1.401 0.001,-0.033 0.001,-0.066 0,-0.099 v -0.75 c 0,-2.9 2.35,-5.25 5.25,-5.25 2.899,0 5.25,2.35 5.25,5.25 v 0.75 c -0.028,0.801 0.6,1.473 1.401,1.5 0.033,10e-4 0.066,10e-4 0.099,0 h 0.6 c 1.669,-0.011 3.325,-0.305 4.897,-0.868 l 5.864,-2.137 c 0.502,-0.241 0.758,-0.807 0.608,-1.342 l -1.319,-5.963 c -0.051,-0.568 -0.551,-0.99 -1.12,-0.945 l -6.335,0.608 -2.317,-8.605 c -0.071,-0.254 -0.114,-0.516 -0.128,-0.78 0.023,-0.541 0.176,-1.07 0.445,-1.54 L 62.18,14.365 c 0.536,-1 0.257,-2.241 -0.655,-2.915 C 56.55,7.8377 46.926,5.5989 36.397,5.5989 Z M 26.361,57.959 c 0.658,0.019 1.267,-0.346 1.561,-0.936 l 0.053,-0.141 2.325,-8.625 c 0.105,-0.381 0.164,-0.774 0.176,-1.17 0.014,-0.803 -0.208,-1.594 -0.639,-2.273 L 11.923,13.627 c -0.2,-0.323 -0.104,-0.747 0.215,-0.953 4.748,-3.4458 14.034,-5.5751 24.26,-5.5751 10.227,0 19.514,2.1293 24.236,5.5581 0.308,0.222 0.409,0.636 0.237,0.975 l -17.85,31.205 c -0.383,0.69 -0.596,1.461 -0.624,2.25 0.012,0.391 0.069,0.779 0.172,1.156 l 2.329,8.641 c 0.178,0.739 0.902,1.21 1.65,1.074 l 5.836,-0.563 1.212,5.457 -5.458,1.985 c -1.41,0.505 -2.894,0.768 -4.391,0.78 h -0.6 v -0.75 c 0,-3.728 -3.022,-6.75 -6.75,-6.75 -3.728,0 -6.75,3.022 -6.75,6.75 v 0.75 h -0.6 c -1.501,-0.012 -2.99,-0.276 -4.403,-0.783 l -5.373,-1.981 1.212,-5.461 5.864,0.567 z"
                 style="fill:#000000;fill-opacity:1;fill-rule:nonzero;stroke:none"
                 id="path14125" />
            </g>
          </g>
        </g>
      </g>
    </g>
  </g>
</svg>
