<?xml version="1.0" encoding="UTF-8" standalone="no"?>
<!-- Created with Inkscape (http://www.inkscape.org/) -->

<svg
   width="25.96307mm"
   height="28.838596mm"
   viewBox="0 0 25.96307 28.838596"
   version="1.1"
   id="svg14971"
   inkscape:version="1.1.2 (b8e25be833, 2022-02-05)"
   sodipodi:docname="Present.svg"
   xmlns:inkscape="http://www.inkscape.org/namespaces/inkscape"
   xmlns:sodipodi="http://sodipodi.sourceforge.net/DTD/sodipodi-0.dtd"
   xmlns="http://www.w3.org/2000/svg"
   xmlns:svg="http://www.w3.org/2000/svg">
  <sodipodi:namedview
     id="namedview14973"
     pagecolor="#ffffff"
     bordercolor="#666666"
     borderopacity="1.0"
     inkscape:pageshadow="2"
     inkscape:pageopacity="0.0"
     inkscape:pagecheckerboard="0"
     inkscape:document-units="mm"
     showgrid="false"
     inkscape:zoom="0.733172"
     inkscape:cx="58.649267"
     inkscape:cy="105.02311"
     inkscape:window-width="1920"
     inkscape:window-height="1009"
     inkscape:window-x="-8"
     inkscape:window-y="-8"
     inkscape:window-maximized="1"
     inkscape:current-layer="layer1" />
  <defs
     id="defs14968">
    <clipPath
       clipPathUnits="userSpaceOnUse"
       id="clipPath14303">
      <path
         d="m 115.5,31.5 h 105 v 105.75 h -105 z"
         clip-rule="evenodd"
         id="path14301" />
    </clipPath>
    <clipPath
       clipPathUnits="userSpaceOnUse"
       id="clipPath14313">
      <path
         d="M 0,0 H 72.761 V 72.764 H 0 Z"
         id="path14311" />
    </clipPath>
  </defs>
  <g
     inkscape:label="Layer 1"
     inkscape:groupmode="layer"
     id="layer1"
     transform="translate(-89.506921,-120.90877)">
    <g
       id="g14297"
       transform="matrix(0.35277777,0,0,-0.35277777,43.21365,164.12408)">
      <g
         id="g14299"
         clip-path="url(#clipPath14303)">
        <g
           id="g14305"
           transform="matrix(1.4583,0,-1.88e-7,1.4687,115.5,31.5)">
          <g
             id="g14307"
             transform="scale(0.98955,0.9895)">
            <g
               id="g14309"
               clip-path="url(#clipPath14313)">
              <path
                 d="m 49.65,49.867 c 1.495,1.48 1.913,3.732 1.05,5.65 l -0.101,0.225 c -1.137,2.596 -4.164,3.777 -6.759,2.639 -0.614,-0.269 -1.169,-0.656 -1.634,-1.139 l -0.664,-0.69 c 0.522,2.779 -1.307,5.454 -4.085,5.977 -0.306,0.057 -0.616,0.087 -0.928,0.088 h -0.25 c -2.828,0.017 -5.135,-2.262 -5.152,-5.09 -0.003,-0.522 0.074,-1.041 0.228,-1.54 l -1.211,1.257 c -1.966,2.04 -5.214,2.1 -7.255,0.134 -0.482,-0.465 -0.869,-1.02 -1.138,-1.634 L 21.65,55.519 c -0.853,-1.918 -0.44,-4.164 1.041,-5.652 H 10.897 V 6.3669 h 51 V 49.867 Z m 10.747,-15.75 h -21 v 14.25 h 21 z m -27,-4.5 h -21 v 3 h 21 z m 1.5,18.75 h 3 V 7.8669 h -3 z m 4.5,-15.75 h 21 v -3 h -21 z m 3.889,23.586 c 0.674,0.712 1.612,1.115 2.592,1.114 0.222,0 0.443,-0.02 0.661,-0.059 1.196,-0.203 2.208,-1 2.686,-2.115 l 0.101,-0.225 c 0.805,-1.837 -0.031,-3.979 -1.868,-4.784 -0.29,-0.127 -0.594,-0.215 -0.907,-0.263 l -9.336,0.035 z M 32.889,56.121 c -0.754,1.858 0.14,3.975 1.998,4.729 0.433,0.176 0.896,0.267 1.364,0.267 h 0.02 0.251 c 2.005,-0.01 3.622,-1.644 3.611,-3.649 -0.002,-0.474 -0.097,-0.943 -0.28,-1.381 L 38.905,53.819 36.172,50.983 34.1,53.137 Z m -9.6,-4.615 c -0.66,1.018 -0.759,2.301 -0.263,3.408 l 0.1,0.225 c 0.479,1.116 1.49,1.912 2.687,2.115 0.218,0.04 0.439,0.06 0.661,0.06 0.98,0 1.918,-0.403 2.592,-1.115 l 6.07,-6.3 -9.339,-0.032 c -1.037,0.151 -1.955,0.75 -2.51,1.639 z m 10.108,-3.139 v -14.25 h -21 v 14.25 z m -21,-20.25 h 21 V 7.8669 h -21 z m 27,-20.2501 V 28.117 h 21 V 7.8669 Z"
                 style="fill:#000000;fill-opacity:1;fill-rule:nonzero;stroke:none"
                 id="path14315" />
            </g>
          </g>
        </g>
      </g>
    </g>
  </g>
</svg>
