<?xml version="1.0" encoding="UTF-8" standalone="no"?>
<!-- Created with Inkscape (http://www.inkscape.org/) -->

<svg
   width="1095.5798"
   height="195.46971"
   viewBox="0 0 289.87216 51.718028"
   version="1.1"
   id="svg5"
   inkscape:version="1.1.2 (b8e25be833, 2022-02-05)"
   sodipodi:docname="Timeline_220723.svg"
   xmlns:inkscape="http://www.inkscape.org/namespaces/inkscape"
   xmlns:sodipodi="http://sodipodi.sourceforge.net/DTD/sodipodi-0.dtd"
   xmlns="http://www.w3.org/2000/svg"
   xmlns:svg="http://www.w3.org/2000/svg">
  <sodipodi:namedview
     id="namedview7"
     pagecolor="#ffffff"
     bordercolor="#666666"
     borderopacity="1.0"
     inkscape:pageshadow="2"
     inkscape:pageopacity="0.0"
     inkscape:pagecheckerboard="0"
     inkscape:document-units="mm"
     showgrid="false"
     units="px"
     inkscape:object-paths="true"
     inkscape:zoom="0.73317201"
     inkscape:cx="523.06961"
     inkscape:cy="-108.43294"
     inkscape:window-width="1920"
     inkscape:window-height="991"
     inkscape:window-x="-9"
     inkscape:window-y="-9"
     inkscape:window-maximized="1"
     inkscape:current-layer="layer1"
     inkscape:snap-midpoints="true" />
  <defs
     id="defs2">
    <inkscape:path-effect
       effect="spiro"
       id="path-effect1172"
       is_visible="true"
       lpeversion="1" />
    <marker
       style="overflow:visible"
       id="TriangleOutM"
       refX="0"
       refY="0"
       orient="auto"
       inkscape:stockid="TriangleOutM"
       inkscape:isstock="true">
      <path
         transform="scale(0.4)"
         style="fill:context-stroke;fill-rule:evenodd;stroke:context-stroke;stroke-width:1pt"
         d="M 5.77,0 -2.88,5 V -5 Z"
         id="path1006" />
    </marker>
    <marker
       style="overflow:visible"
       id="TriangleOutL"
       refX="0"
       refY="0"
       orient="auto"
       inkscape:stockid="TriangleOutL"
       inkscape:isstock="true">
      <path
         transform="scale(0.8)"
         style="fill:context-stroke;fill-rule:evenodd;stroke:context-stroke;stroke-width:1pt"
         d="M 5.77,0 -2.88,5 V -5 Z"
         id="path1003" />
    </marker>
    <inkscape:path-effect
       effect="spiro"
       id="path-effect859"
       is_visible="true"
       lpeversion="1" />
    <inkscape:path-effect
       effect="spiro"
       id="path-effect1172-5"
       is_visible="true"
       lpeversion="1" />
    <inkscape:path-effect
       effect="spiro"
       id="path-effect1172-5-6"
       is_visible="true"
       lpeversion="1" />
    <inkscape:path-effect
       effect="spiro"
       id="path-effect1172-9"
       is_visible="true"
       lpeversion="1" />
    <inkscape:path-effect
       effect="spiro"
       id="path-effect1172-8"
       is_visible="true"
       lpeversion="1" />
    <inkscape:path-effect
       effect="spiro"
       id="path-effect1172-9-0"
       is_visible="true"
       lpeversion="1" />
    <inkscape:path-effect
       effect="spiro"
       id="path-effect1172-8-3"
       is_visible="true"
       lpeversion="1" />
    <inkscape:path-effect
       effect="spiro"
       id="path-effect1172-9-0-0"
       is_visible="true"
       lpeversion="1" />
    <inkscape:path-effect
       effect="spiro"
       id="path-effect1172-5-9"
       is_visible="true"
       lpeversion="1" />
    <inkscape:path-effect
       effect="spiro"
       id="path-effect1172-89"
       is_visible="true"
       lpeversion="1" />
    <inkscape:path-effect
       effect="spiro"
       id="path-effect1172-2"
       is_visible="true"
       lpeversion="1" />
    <inkscape:path-effect
       effect="spiro"
       id="path-effect1172-91"
       is_visible="true"
       lpeversion="1" />
    <inkscape:path-effect
       effect="spiro"
       id="path-effect1172-1"
       is_visible="true"
       lpeversion="1" />
    <inkscape:path-effect
       effect="spiro"
       id="path-effect1172-891"
       is_visible="true"
       lpeversion="1" />
    <clipPath
       clipPathUnits="userSpaceOnUse"
       id="clipPath3188">
      <path
         d="M 96.75,70.5 H 141 V 114 H 96.75 Z"
         clip-rule="evenodd"
         id="path3186" />
    </clipPath>
    <clipPath
       clipPathUnits="userSpaceOnUse"
       id="clipPath3198">
      <path
         d="M 0,0 H 72.761 V 72.764 H 0 Z"
         id="path3196" />
    </clipPath>
    <clipPath
       clipPathUnits="userSpaceOnUse"
       id="clipPath3216">
      <path
         d="M 0.39675,72.367 H 72.397 V 0.36695 l -72.00026,-1e-5"
         clip-rule="evenodd"
         id="path3214" />
    </clipPath>
    <clipPath
       clipPathUnits="userSpaceOnUse"
       id="clipPath3226">
      <path
         d="M 0.39675,72.367 H 72.397 V 0.36694 l -72.00025,-1e-5"
         clip-rule="evenodd"
         id="path3224" />
    </clipPath>
    <clipPath
       clipPathUnits="userSpaceOnUse"
       id="clipPath3236">
      <path
         d="M 0.39675,72.367 H 72.397 V 0.36694 H 0.39675"
         clip-rule="evenodd"
         id="path3234" />
    </clipPath>
    <clipPath
       clipPathUnits="userSpaceOnUse"
       id="clipPath3246">
      <path
         d="M 0.39674,72.367 H 72.397 V 0.36694 H 0.39675"
         clip-rule="evenodd"
         id="path3244" />
    </clipPath>
    <clipPath
       clipPathUnits="userSpaceOnUse"
       id="clipPath3256">
      <path
         d="m 228,126.75 h 48 v 48 h -48 z"
         clip-rule="evenodd"
         id="path3254" />
    </clipPath>
    <clipPath
       clipPathUnits="userSpaceOnUse"
       id="clipPath3266">
      <path
         d="M 0,0 H 72.761 V 72.764 H 0 Z"
         id="path3264" />
    </clipPath>
    <clipPath
       clipPathUnits="userSpaceOnUse"
       id="clipPath3312">
      <path
         d="M 347.25,73.5 H 387 v 39.75 h -39.75 z"
         clip-rule="evenodd"
         id="path3310" />
    </clipPath>
    <clipPath
       clipPathUnits="userSpaceOnUse"
       id="clipPath3322">
      <path
         d="M 0,0 H 72.761 V 72.764 H 0 Z"
         id="path3320" />
    </clipPath>
    <clipPath
       clipPathUnits="userSpaceOnUse"
       id="clipPath3276">
      <path
         d="M 481.5,130.5 H 525 v 44.25 h -43.5 z"
         clip-rule="evenodd"
         id="path3274" />
    </clipPath>
    <clipPath
       clipPathUnits="userSpaceOnUse"
       id="clipPath3286">
      <path
         d="M 0,0 H 72.761 V 72.764 H 0 Z"
         id="path3284" />
    </clipPath>
    <clipPath
       clipPathUnits="userSpaceOnUse"
       id="clipPath3338">
      <path
         d="m 661.5,81 h 33 v 33 h -33 z"
         clip-rule="evenodd"
         id="path3336" />
    </clipPath>
    <clipPath
       clipPathUnits="userSpaceOnUse"
       id="clipPath3348">
      <path
         d="M 0,0 H 72.761 V 72.764 H 0 Z"
         id="path3346" />
    </clipPath>
    <clipPath
       clipPathUnits="userSpaceOnUse"
       id="clipPath3162">
      <path
         d="m 789,128.25 h 43.5 V 172.5 H 789 Z"
         clip-rule="evenodd"
         id="path3160" />
    </clipPath>
    <clipPath
       clipPathUnits="userSpaceOnUse"
       id="clipPath3172">
      <path
         d="M 0,0 H 72.761 V 72.764 H 0 Z"
         id="path3170" />
    </clipPath>
  </defs>
  <g
     inkscape:label="Layer 1"
     inkscape:groupmode="layer"
     id="layer1"
     transform="translate(-79.392467,-121.89693)">
    <path
       style="fill:none;stroke:#000000;stroke-width:0.79375;stroke-linecap:butt;stroke-linejoin:miter;stroke-miterlimit:4;stroke-dasharray:none;stroke-opacity:1;marker-end:url(#TriangleOutM)"
       d="M 79.392467,147.95869 H 367.00971"
       id="path857"
       inkscape:path-effect="#path-effect859"
       inkscape:original-d="m 79.392467,147.95869 c 109.946803,2.6e-4 177.670963,2.6e-4 287.617243,0"
       sodipodi:nodetypes="cc" />
    <path
       style="fill:none;stroke:#000000;stroke-width:0.79375;stroke-linecap:butt;stroke-linejoin:miter;stroke-miterlimit:4;stroke-dasharray:none;stroke-opacity:1"
       d="m 106.88986,147.95869 v -3.06744"
       id="path1170"
       inkscape:path-effect="#path-effect1172"
       inkscape:original-d="m 106.88986,147.95869 c 2.6e-4,-2.40557 2.6e-4,-0.66134 0,-3.06744"
       sodipodi:nodetypes="cc" />
    <text
       xml:space="preserve"
       style="font-size:4.23333px;line-height:1.25;font-family:sans-serif;word-spacing:0px;stroke-width:0.264583"
       x="106.89193"
       y="125.07193"
       id="text2216"><tspan
         sodipodi:role="line"
         style="font-style:normal;font-variant:normal;font-weight:normal;font-stretch:normal;font-size:4.23333px;font-family:'Roboto Mono';-inkscape-font-specification:'Roboto Mono';text-align:center;text-anchor:middle;stroke-width:0.264583"
         x="106.89193"
         y="125.07193"
         id="tspan2218">Sommarmingel</tspan><tspan
         sodipodi:role="line"
         style="font-style:normal;font-variant:normal;font-weight:normal;font-stretch:normal;font-size:4.23333px;font-family:'Roboto Mono';-inkscape-font-specification:'Roboto Mono';text-align:center;text-anchor:middle;stroke-width:0.264583"
         x="106.89193"
         y="130.39403"
         id="tspan111286">och middag</tspan><tspan
         sodipodi:role="line"
         style="font-style:normal;font-variant:normal;font-weight:normal;font-stretch:normal;font-size:4.23333px;font-family:'Roboto Mono';-inkscape-font-specification:'Roboto Mono';text-align:center;text-anchor:middle;stroke-width:0.264583"
         x="106.89193"
         y="135.71613"
         id="tspan2220">Kinderåsen</tspan><tspan
         sodipodi:role="line"
         style="font-style:normal;font-variant:normal;font-weight:normal;font-stretch:normal;font-size:4.23333px;font-family:'Roboto Mono';-inkscape-font-specification:'Roboto Mono';text-align:center;text-anchor:middle;stroke-width:0.264583"
         x="106.89193"
         y="141.03824"
         id="tspan40735">18:00</tspan></text>
    <g
       id="g85178"
       transform="translate(5.785292)">
      <path
         style="fill:none;stroke:#000000;stroke-width:0.79375;stroke-linecap:butt;stroke-linejoin:miter;stroke-miterlimit:4;stroke-dasharray:none;stroke-opacity:1"
         d="M 134.17782,154.00334 V 141.91403"
         id="path1170-5"
         inkscape:path-effect="#path-effect1172-5"
         inkscape:original-d="m 134.17782,154.00334 c 2.6e-4,-2.40557 2.6e-4,-9.68321 0,-12.08931"
         sodipodi:nodetypes="cc" />
      <text
         xml:space="preserve"
         style="font-size:4.23333px;line-height:1.25;font-family:sans-serif;word-spacing:0px;stroke-width:0.264583"
         x="132.07738"
         y="145.70609"
         id="text13490"><tspan
           sodipodi:role="line"
           id="tspan13488"
           style="font-style:normal;font-variant:normal;font-weight:normal;font-stretch:normal;font-size:4.23333px;font-family:'Roboto Mono';-inkscape-font-specification:'Roboto Mono';text-align:end;text-anchor:end;stroke-width:0.264583"
           x="132.07738"
           y="145.70609">Fredag</tspan></text>
      <text
         xml:space="preserve"
         style="font-size:4.23333px;line-height:1.25;font-family:sans-serif;word-spacing:0px;stroke-width:0.264583"
         x="151.4825"
         y="145.70609"
         id="text13490-3"><tspan
           sodipodi:role="line"
           id="tspan13488-4"
           style="font-style:normal;font-variant:normal;font-weight:normal;font-stretch:normal;font-size:4.23333px;font-family:'Roboto Mono';-inkscape-font-specification:'Roboto Mono';text-align:end;text-anchor:end;stroke-width:0.264583"
           x="151.4825"
           y="145.70609">Lördag</tspan></text>
    </g>
    <g
       id="g85171"
       transform="translate(43.665857)">
      <path
         style="fill:none;stroke:#000000;stroke-width:0.79375;stroke-linecap:butt;stroke-linejoin:miter;stroke-miterlimit:4;stroke-dasharray:none;stroke-opacity:1"
         d="M 294.67426,154.00334 V 141.91403"
         id="path1170-5-32"
         inkscape:path-effect="#path-effect1172-5-9"
         inkscape:original-d="m 294.67426,154.00334 c 2.6e-4,-2.40557 2.6e-4,-9.68321 0,-12.08931"
         sodipodi:nodetypes="cc" />
      <text
         xml:space="preserve"
         style="font-size:4.23333px;line-height:1.25;font-family:sans-serif;word-spacing:0px;stroke-width:0.264583"
         x="292.61157"
         y="145.70609"
         id="text13490-32"><tspan
           sodipodi:role="line"
           id="tspan13488-1"
           style="font-style:normal;font-variant:normal;font-weight:normal;font-stretch:normal;font-size:4.23333px;font-family:'Roboto Mono';-inkscape-font-specification:'Roboto Mono';text-align:end;text-anchor:end;stroke-width:0.264583"
           x="292.61157"
           y="145.70609">Lördag</tspan></text>
      <text
         xml:space="preserve"
         style="font-size:4.23333px;line-height:1.25;font-family:sans-serif;word-spacing:0px;stroke-width:0.264583"
         x="312.01669"
         y="145.70609"
         id="text13490-3-3"><tspan
           sodipodi:role="line"
           id="tspan13488-4-5"
           style="font-style:normal;font-variant:normal;font-weight:normal;font-stretch:normal;font-size:4.23333px;font-family:'Roboto Mono';-inkscape-font-specification:'Roboto Mono';text-align:end;text-anchor:end;stroke-width:0.264583"
           x="312.01669"
           y="145.70609">Söndag</tspan></text>
    </g>
    <text
       xml:space="preserve"
       style="font-size:4.23333px;line-height:1.25;font-family:sans-serif;word-spacing:0px;stroke-width:0.264583"
       x="173.10011"
       y="157.60732"
       id="text2216-8"><tspan
         sodipodi:role="line"
         style="font-style:normal;font-variant:normal;font-weight:normal;font-stretch:normal;font-size:4.23333px;font-family:'Roboto Mono';-inkscape-font-specification:'Roboto Mono';text-align:center;text-anchor:middle;stroke-width:0.264583"
         x="173.10011"
         y="157.60732"
         id="tspan2220-2">Pre-vigsel</tspan><tspan
         sodipodi:role="line"
         style="font-style:normal;font-variant:normal;font-weight:normal;font-stretch:normal;font-size:4.23333px;font-family:'Roboto Mono';-inkscape-font-specification:'Roboto Mono';text-align:center;text-anchor:middle;stroke-width:0.264583"
         x="173.10011"
         y="162.92941"
         id="tspan32527">Ovikens</tspan><tspan
         sodipodi:role="line"
         style="font-style:normal;font-variant:normal;font-weight:normal;font-stretch:normal;font-size:4.23333px;font-family:'Roboto Mono';-inkscape-font-specification:'Roboto Mono';text-align:center;text-anchor:middle;stroke-width:0.264583"
         x="173.10011"
         y="168.25151"
         id="tspan65136">Gamla Kyrka</tspan><tspan
         sodipodi:role="line"
         style="font-style:normal;font-variant:normal;font-weight:normal;font-stretch:normal;font-size:4.23333px;font-family:'Roboto Mono';-inkscape-font-specification:'Roboto Mono';text-align:center;text-anchor:middle;stroke-width:0.264583"
         x="173.10011"
         y="173.57362"
         id="tspan41859">14:30</tspan></text>
    <path
       style="fill:none;stroke:#000000;stroke-width:0.79375;stroke-linecap:butt;stroke-linejoin:miter;stroke-miterlimit:4;stroke-dasharray:none;stroke-opacity:1"
       d="m 173.02984,151.02613 v -3.06744"
       id="path1170-48"
       inkscape:path-effect="#path-effect1172-89"
       inkscape:original-d="m 173.02984,151.02613 c 2.6e-4,-2.40557 2.6e-4,-0.66134 0,-3.06744"
       sodipodi:nodetypes="cc" />
    <text
       xml:space="preserve"
       style="font-size:4.23333px;line-height:1.25;font-family:sans-serif;word-spacing:0px;stroke-width:0.264583"
       x="206.17043"
       y="125.07193"
       id="text2216-9"><tspan
         sodipodi:role="line"
         style="font-style:normal;font-variant:normal;font-weight:normal;font-stretch:normal;font-size:4.23333px;font-family:'Roboto Mono';-inkscape-font-specification:'Roboto Mono';text-align:center;text-anchor:middle;stroke-width:0.264583"
         x="206.17043"
         y="125.07193"
         id="tspan2220-7">Vigsel</tspan><tspan
         sodipodi:role="line"
         style="font-style:normal;font-variant:normal;font-weight:normal;font-stretch:normal;font-size:4.23333px;font-family:'Roboto Mono';-inkscape-font-specification:'Roboto Mono';text-align:center;text-anchor:middle;stroke-width:0.264583"
         x="206.17043"
         y="130.39403"
         id="tspan51581">Ovikens</tspan><tspan
         sodipodi:role="line"
         style="font-style:normal;font-variant:normal;font-weight:normal;font-stretch:normal;font-size:4.23333px;font-family:'Roboto Mono';-inkscape-font-specification:'Roboto Mono';text-align:center;text-anchor:middle;stroke-width:0.264583"
         x="206.17043"
         y="135.71613"
         id="tspan68032">Gamla Kyrka</tspan><tspan
         sodipodi:role="line"
         style="font-style:normal;font-variant:normal;font-weight:normal;font-stretch:normal;font-size:4.23333px;font-family:'Roboto Mono';-inkscape-font-specification:'Roboto Mono';text-align:center;text-anchor:middle;stroke-width:0.264583"
         x="206.17043"
         y="141.03824"
         id="tspan40735-1">15:00</tspan></text>
    <path
       style="fill:none;stroke:#000000;stroke-width:0.79375;stroke-linecap:butt;stroke-linejoin:miter;stroke-miterlimit:4;stroke-dasharray:none;stroke-opacity:1"
       d="m 206.10015,147.95869 v -3.06744"
       id="path1170-0"
       inkscape:path-effect="#path-effect1172-2"
       inkscape:original-d="m 206.10015,147.95869 c 2.6e-4,-2.40557 2.6e-4,-0.66134 0,-3.06744"
       sodipodi:nodetypes="cc" />
    <text
       xml:space="preserve"
       style="font-size:4.23333px;line-height:1.25;font-family:sans-serif;word-spacing:0px;stroke-width:0.264583"
       x="239.15945"
       y="157.60732"
       id="text2216-8-4"><tspan
         sodipodi:role="line"
         style="font-style:normal;font-variant:normal;font-weight:normal;font-stretch:normal;font-size:4.23333px;font-family:'Roboto Mono';-inkscape-font-specification:'Roboto Mono';text-align:center;text-anchor:middle;stroke-width:0.264583"
         x="239.15945"
         y="157.60732"
         id="tspan2220-2-8">Brudskål</tspan><tspan
         sodipodi:role="line"
         style="font-style:normal;font-variant:normal;font-weight:normal;font-stretch:normal;font-size:4.23333px;font-family:'Roboto Mono';-inkscape-font-specification:'Roboto Mono';text-align:center;text-anchor:middle;stroke-width:0.264583"
         x="239.15945"
         y="162.92941"
         id="tspan32527-2">Körbrua,</tspan><tspan
         sodipodi:role="line"
         style="font-style:normal;font-variant:normal;font-weight:normal;font-stretch:normal;font-size:4.23333px;font-family:'Roboto Mono';-inkscape-font-specification:'Roboto Mono';text-align:center;text-anchor:middle;stroke-width:0.264583"
         x="239.15945"
         y="168.25151"
         id="tspan61828">Kinderåsen</tspan><tspan
         sodipodi:role="line"
         style="font-style:normal;font-variant:normal;font-weight:normal;font-stretch:normal;font-size:4.23333px;font-family:'Roboto Mono';-inkscape-font-specification:'Roboto Mono';text-align:center;text-anchor:middle;stroke-width:0.264583"
         x="239.15945"
         y="173.57362"
         id="tspan41859-5">16:30</tspan></text>
    <path
       style="fill:none;stroke:#000000;stroke-width:0.79375;stroke-linecap:butt;stroke-linejoin:miter;stroke-miterlimit:4;stroke-dasharray:none;stroke-opacity:1"
       d="m 239.17048,151.02613 v -3.06744"
       id="path1170-59"
       inkscape:path-effect="#path-effect1172-91"
       inkscape:original-d="m 239.17048,151.02613 c 2.6e-4,-2.40557 2.6e-4,-0.66134 0,-3.06744"
       sodipodi:nodetypes="cc" />
    <text
       xml:space="preserve"
       style="font-size:4.23333px;line-height:1.25;font-family:sans-serif;word-spacing:0px;stroke-width:0.264583"
       x="272.2298"
       y="125.07193"
       id="text2216-9-1"><tspan
         sodipodi:role="line"
         style="font-style:normal;font-variant:normal;font-weight:normal;font-stretch:normal;font-size:4.23333px;font-family:'Roboto Mono';-inkscape-font-specification:'Roboto Mono';text-align:center;text-anchor:middle;stroke-width:0.264583"
         x="272.2298"
         y="125.07193"
         id="tspan68032-5">Middag</tspan><tspan
         sodipodi:role="line"
         style="font-style:normal;font-variant:normal;font-weight:normal;font-stretch:normal;font-size:4.23333px;font-family:'Roboto Mono';-inkscape-font-specification:'Roboto Mono';text-align:center;text-anchor:middle;stroke-width:0.264583"
         x="272.2298"
         y="130.39403"
         id="tspan75282">Höladan,</tspan><tspan
         sodipodi:role="line"
         style="font-style:normal;font-variant:normal;font-weight:normal;font-stretch:normal;font-size:4.23333px;font-family:'Roboto Mono';-inkscape-font-specification:'Roboto Mono';text-align:center;text-anchor:middle;stroke-width:0.264583"
         x="272.2298"
         y="135.71613"
         id="tspan75284">Kinderåsen</tspan><tspan
         sodipodi:role="line"
         style="font-style:normal;font-variant:normal;font-weight:normal;font-stretch:normal;font-size:4.23333px;font-family:'Roboto Mono';-inkscape-font-specification:'Roboto Mono';text-align:center;text-anchor:middle;stroke-width:0.264583"
         x="272.2298"
         y="141.03824"
         id="tspan40735-1-3">18:00</tspan></text>
    <path
       style="fill:none;stroke:#000000;stroke-width:0.79375;stroke-linecap:butt;stroke-linejoin:miter;stroke-miterlimit:4;stroke-dasharray:none;stroke-opacity:1"
       d="m 272.24082,147.95869 v -3.06744"
       id="path1170-6"
       inkscape:path-effect="#path-effect1172-1"
       inkscape:original-d="m 272.24082,147.95869 c 2.6e-4,-2.40557 2.6e-4,-0.66134 0,-3.06744"
       sodipodi:nodetypes="cc" />
    <text
       xml:space="preserve"
       style="font-size:4.23333px;line-height:1.25;font-family:sans-serif;word-spacing:0px;stroke-width:0.264583"
       x="305.30011"
       y="157.60732"
       id="text2216-8-4-3"><tspan
         sodipodi:role="line"
         style="font-style:normal;font-variant:normal;font-weight:normal;font-stretch:normal;font-size:4.23333px;font-family:'Roboto Mono';-inkscape-font-specification:'Roboto Mono';text-align:center;text-anchor:middle;stroke-width:0.264583"
         x="305.30011"
         y="157.60732"
         id="tspan41859-5-2">Bröllopsfest</tspan><tspan
         sodipodi:role="line"
         style="font-style:normal;font-variant:normal;font-weight:normal;font-stretch:normal;font-size:4.23333px;font-family:'Roboto Mono';-inkscape-font-specification:'Roboto Mono';text-align:center;text-anchor:middle;stroke-width:0.264583"
         x="305.30011"
         y="162.92941"
         id="tspan82737">Brujeln,</tspan><tspan
         sodipodi:role="line"
         style="font-style:normal;font-variant:normal;font-weight:normal;font-stretch:normal;font-size:4.23333px;font-family:'Roboto Mono';-inkscape-font-specification:'Roboto Mono';text-align:center;text-anchor:middle;stroke-width:0.264583"
         x="305.30011"
         y="168.25151"
         id="tspan82739">Kinderåsen</tspan><tspan
         sodipodi:role="line"
         style="font-style:normal;font-variant:normal;font-weight:normal;font-stretch:normal;font-size:4.23333px;font-family:'Roboto Mono';-inkscape-font-specification:'Roboto Mono';text-align:center;text-anchor:middle;stroke-width:0.264583"
         x="305.30011"
         y="173.57362"
         id="tspan8682">23:00</tspan></text>
    <path
       style="fill:none;stroke:#000000;stroke-width:0.79375;stroke-linecap:butt;stroke-linejoin:miter;stroke-miterlimit:4;stroke-dasharray:none;stroke-opacity:1"
       d="m 305.31115,151.02613 v -3.06744"
       id="path1170-9"
       inkscape:path-effect="#path-effect1172-891"
       inkscape:original-d="m 305.31115,151.02613 c 2.6e-4,-2.40557 2.6e-4,-0.66134 0,-3.06744"
       sodipodi:nodetypes="cc" />
    <g
       id="g3182"
       transform="matrix(0.37882614,0,0,-0.39342934,61.856875,192.80972)">
      <g
         id="g3184"
         clip-path="url(#clipPath3188)">
        <g
           id="g3190"
           transform="matrix(0.61458,0,-9.4e-8,0.60417,96.75,70.5)">
          <g
             id="g3192"
             transform="scale(0.98955,0.9895)">
            <g
               id="g3194"
               clip-path="url(#clipPath3198)">
              <path
                 d="m 36.397,49.867 c -7.456,0 -13.5,-6.044 -13.5,-13.5 0,-7.456 6.044,-13.5 13.5,-13.5 7.456,0 13.5,6.044 13.5,13.5 -0.009,7.452 -6.048,13.491 -13.5,13.5 z m 0,-25.5 c -6.628,0 -12,5.372 -12,12 0,6.627 5.372,12 12,12 6.627,0 12,-5.373 12,-12 -0.008,-6.624 -5.376,-11.992 -12,-12 z"
                 style="fill:#000000;fill-opacity:1;fill-rule:nonzero;stroke:none"
                 id="path3200" />
              <path
                 d="m 35.647,10.117 h 1.5 v 9.75 h -1.5 z"
                 style="fill:#000000;fill-opacity:1;fill-rule:nonzero;stroke:none"
                 id="path3202" />
              <path
                 d="m 35.647,52.867 h 1.5 v 9.75 h -1.5 z"
                 style="fill:#000000;fill-opacity:1;fill-rule:nonzero;stroke:none"
                 id="path3204" />
              <path
                 d="m 10.147,35.617 h 9.75 v 1.5 h -9.75 z"
                 style="fill:#000000;fill-opacity:1;fill-rule:nonzero;stroke:none"
                 id="path3206" />
              <path
                 d="m 52.897,35.617 h 9.75 v 1.5 h -9.75 z"
                 style="fill:#000000;fill-opacity:1;fill-rule:nonzero;stroke:none"
                 id="path3208" />
              <g
                 id="g3210">
                <g
                   id="g3212"
                   clip-path="url(#clipPath3216)">
                  <path
                     d="M 17.305,18.335 24.2,25.23 25.26,24.169 18.366,17.275 Z"
                     style="fill:#000000;fill-opacity:1;fill-rule:nonzero;stroke:none"
                     id="path3218" />
                </g>
              </g>
              <g
                 id="g3220">
                <g
                   id="g3222"
                   clip-path="url(#clipPath3226)">
                  <path
                     d="m 47.533,48.565 6.894,6.894 1.061,-1.061 -6.894,-6.894 z"
                     style="fill:#000000;fill-opacity:1;fill-rule:nonzero;stroke:none"
                     id="path3228" />
                </g>
              </g>
              <g
                 id="g3230">
                <g
                   id="g3232"
                   clip-path="url(#clipPath3236)">
                  <path
                     d="m 17.305,54.398 1.06,1.061 6.895,-6.894 -1.061,-1.061 z"
                     style="fill:#000000;fill-opacity:1;fill-rule:nonzero;stroke:none"
                     id="path3238" />
                </g>
              </g>
              <g
                 id="g3240">
                <g
                   id="g3242"
                   clip-path="url(#clipPath3246)">
                  <path
                     d="m 47.533,24.169 1.061,1.061 6.894,-6.894 -1.06,-1.061 z"
                     style="fill:#000000;fill-opacity:1;fill-rule:nonzero;stroke:none"
                     id="path3248" />
                </g>
              </g>
            </g>
          </g>
        </g>
      </g>
    </g>
    <g
       id="g3250"
       transform="matrix(0.34025168,0,0,-0.34025168,87.286302,190.02725)">
      <g
         id="g3252"
         clip-path="url(#clipPath3256)">
        <g
           id="g3258"
           transform="matrix(0.66667,-1.88e-7,-3.77e-7,0.66667,228,126.75)">
          <g
             id="g3260"
             transform="scale(0.98955,0.9895)">
            <g
               id="g3262"
               clip-path="url(#clipPath3266)">
              <path
                 d="m 55.964,33.734 c -2.129,1.071 -4.351,1.95 -6.637,2.625 -0.012,0.004 -0.012,0.01 0,0.014 2.286,0.676 4.508,1.554 6.637,2.625 3.47,2.067 4.68,6.509 2.738,10.05 -0.985,1.695 -2.605,2.928 -4.5,3.427 -1.877,0.533 -3.89,0.284 -5.58,-0.69 -2.26,-1.551 -4.327,-3.366 -6.159,-5.406 -0.012,-0.013 -0.017,-0.01 -0.012,0.007 0.838,2.606 1.361,5.303 1.558,8.033 -0.127,3.948 -3.362,7.084 -7.312,7.086 -0.075,0 -0.159,0 -0.238,-0.003 -3.859,-0.124 -6.958,-3.224 -7.082,-7.083 0.193,-2.73 0.716,-5.427 1.557,-8.031 0.006,-0.018 0,-0.021 -0.011,-0.007 -1.833,2.041 -3.903,3.856 -6.166,5.406 -1.691,0.974 -3.703,1.223 -5.58,0.69 -1.896,-0.5 -3.514,-1.733 -4.5,-3.428 -1.942,-3.54 -0.732,-7.983 2.737,-10.05 2.145,-1.072 4.381,-1.95 6.682,-2.625 0.013,-0.003 0.013,-0.009 0,-0.013 -2.283,-0.677 -4.502,-1.555 -6.629,-2.625 -3.47,-2.067 -4.68,-6.509 -2.738,-10.05 0.986,-1.694 2.605,-2.927 4.5,-3.428 0.65,-0.177 1.321,-0.268 1.995,-0.27 h 0.023 c 1.252,0 2.481,0.331 3.564,0.96 2.263,1.55 4.333,3.365 6.165,5.406 0.013,0.014 0.018,0.011 0.013,-0.006 -0.842,-2.605 -1.366,-5.303 -1.56,-8.034 0.127,-3.948 3.363,-7.083 7.313,-7.086 0.075,0 0.158,0 0.237,0 3.861,0.124 6.961,3.226 7.083,7.086 -0.197,2.73 -0.72,5.427 -1.558,8.032 -0.005,0.017 0,0.02 0.012,0.007 1.831,-2.04 3.899,-3.854 6.158,-5.406 1.087,-0.629 2.321,-0.96 3.576,-0.96 h 0.017 c 0.671,0.001 1.34,0.092 1.987,0.27 1.896,0.499 3.515,1.733 4.5,3.427 1.933,3.555 0.699,8.001 -2.79,10.05 z M 43.558,45.356 c 1.744,1.944 3.712,3.676 5.862,5.159 0.858,0.482 1.825,0.736 2.809,0.736 2.109,-0.018 4.059,-1.124 5.157,-2.925 1.556,-2.813 0.608,-6.354 -2.146,-8.013 -2.042,-1.022 -4.17,-1.862 -6.36,-2.509 l -3.306,-0.975 c -0.004,-10e-4 -0.008,0.002 -0.009,0.006 0,0 0,0 0,10e-4 -0.144,2.663 -1.479,5.12 -3.637,6.688 -0.003,0.003 -0.003,0.007 -10e-4,0.01 0,0 10e-4,0 10e-4,10e-4 z m 0.519,-8.989 c -0.006,-4.068 -3.308,-7.362 -7.376,-7.357 -4.069,0.005 -7.362,3.308 -7.357,7.376 10e-4,0.804 0.134,1.603 0.393,2.364 0.999,2.999 3.821,5.01 6.982,4.974 h 0.008 c 4.06,-0.004 7.35,-3.297 7.35,-7.357 z m -13.2,18.075 c 0.141,3.035 2.588,5.453 5.625,5.557 0.063,0 0.126,0 0.189,0 3.117,0.012 5.685,-2.444 5.811,-5.559 -0.194,-2.593 -0.695,-5.154 -1.493,-7.629 l -0.75,-2.325 c -10e-4,-0.003 -0.004,-0.005 -0.008,-0.005 0,0 -10e-4,10e-4 -10e-4,10e-4 -2.269,0.99 -4.85,0.984 -7.114,-0.018 -0.003,-0.002 -0.008,0 -0.009,0.004 0,0 0,0 0,0 l -0.76,2.347 c -0.8,2.474 -1.3,5.034 -1.488,7.627 z M 18.134,40.312 c -2.746,1.656 -3.697,5.185 -2.154,7.996 0.79,1.353 2.088,2.333 3.605,2.723 1.468,0.417 3.042,0.23 4.372,-0.519 2.154,-1.481 4.123,-3.212 5.868,-5.159 l 1.65,-1.844 c 0.002,-0.002 0.003,-0.006 0,-0.009 0,-10e-4 0,-10e-4 0,-10e-4 -2.137,-1.57 -3.458,-4.014 -3.6,-6.661 -0.001,-0.004 -0.005,-0.007 -0.009,-0.006 0,0 -0.001,0 -0.001,0 l -3.325,0.975 c -2.204,0.645 -4.347,1.484 -6.403,2.508 z M 29.879,27.377 c -1.744,-1.947 -3.715,-3.679 -5.869,-5.16 -0.848,-0.48 -1.807,-0.732 -2.782,-0.73 -0.546,0.002 -1.09,0.076 -1.616,0.22 -1.506,0.394 -2.793,1.371 -3.577,2.715 -1.543,2.813 -0.592,6.342 2.156,7.998 2.04,1.021 4.167,1.861 6.356,2.508 l 3.326,0.989 c 0.138,-2.672 1.477,-5.139 3.642,-6.71 z m 12.68,-9.089 c -0.141,-3.034 -2.588,-5.452 -5.625,-5.557 -0.063,0 -0.126,0 -0.189,0 -3.119,-0.013 -5.689,2.445 -5.813,5.561 0.189,2.591 0.689,5.15 1.49,7.622 l 0.756,2.333 c 1.113,-0.486 2.315,-0.738 3.53,-0.738 v 0 c 1.239,-0.001 2.464,0.259 3.595,0.763 l 0.76,-2.356 c 0.799,-2.474 1.301,-5.035 1.496,-7.628 z m 14.888,6.132 c -0.786,-1.348 -2.079,-2.327 -3.59,-2.717 -0.524,-0.144 -1.064,-0.216 -1.607,-0.216 -0.972,0.001 -1.928,0.252 -2.775,0.731 -2.151,1.483 -4.118,3.215 -5.863,5.16 l -1.659,1.851 c 2.144,1.571 3.47,4.021 3.613,6.675 l 3.315,-0.975 c 2.192,-0.648 4.322,-1.488 6.365,-2.511 2.766,-1.639 3.739,-5.174 2.201,-7.998 z"
                 style="fill:#000000;fill-opacity:1;fill-rule:nonzero;stroke:none"
                 id="path3268" />
            </g>
          </g>
        </g>
      </g>
    </g>
    <g
       id="g3306"
       transform="matrix(0.35277777,0,0,-0.35277777,76.586611,188.96911)">
      <g
         id="g3308"
         clip-path="url(#clipPath3312)">
        <g
           id="g3314"
           transform="matrix(0.55208,0,-3.77e-7,0.55208,347.25,73.5)">
          <g
             id="g3316"
             transform="scale(0.98955,0.9895)">
            <g
               id="g3318"
               clip-path="url(#clipPath3322)">
              <path
                 d="m 44.314,31.117 c 0.003,3.453 -0.949,6.839 -2.752,9.784 -0.689,1.103 -1.518,2.112 -2.468,3 -0.436,-0.266 -0.858,-0.555 -1.265,-0.865 L 38,42.875 c 0.881,-0.814 1.648,-1.741 2.283,-2.758 4.957,-8.121 2.392,-18.723 -5.729,-23.68 -8.121,-4.957 -18.723,-2.392 -23.68,5.729 -4.9572,8.121 -2.3921,18.723 5.729,23.68 4.934,3.012 11.049,3.348 16.283,0.896 0.4,0.361 0.816,0.706 1.248,1.035 C 24.946,52.523 13.651,48.923 8.9041,39.735 7.7152,37.434 7.0168,34.912 6.8528,32.327 6.4988,27.147 8.3261,22.055 11.893,18.281 c 7.086,-7.55 18.952,-7.926 26.503,-0.84 3.777,3.545 5.92,8.495 5.918,13.676 z"
                 style="fill:#000000;fill-opacity:1;fill-rule:nonzero;stroke:none"
                 id="path3324" />
              <path
                 d="m 56.477,56.617 -3.75,4.5 h -12 l -3.75,-4.5 9.75,-10.5 z m -13.298,-0.75 1.928,-5.783 c 0.002,-0.004 0,-0.008 -0.004,-0.01 -0.003,-10e-4 -0.006,0 -0.009,0.002 l -5.364,5.779 c -0.003,0.003 -0.002,0.008 0.001,0.01 10e-4,10e-4 0.003,0.002 0.004,0.002 z m 4.533,3.75 0.9,-2.25 h -3.785 l 0.901,2.25 z m 6.01,-3.758 -5.385,-5.802 c -0.003,-0.003 -0.008,-0.002 -0.011,10e-4 -10e-4,0.002 -0.002,0.004 -10e-4,0.006 l 1.935,5.803 h 3.462 c 0.002,-0.002 0.002,-0.006 0,-0.008 z m -5.043,0.008 -1.95,-5.857 c -0.002,-0.004 -0.006,-0.006 -0.01,-0.005 -0.002,10e-4 -0.004,0.003 -0.005,0.005 l -1.954,5.857 z m 5.204,1.5 h -3.656 l -0.9,2.25 h 2.7 l 1.864,-2.238 c 0.002,-0.004 0.001,-0.009 -0.003,-0.011 -0.002,-0.001 -0.003,-0.001 -0.005,-0.001 z m -12.45,2.25 h 2.683 l -0.9,-2.25 H 39.57 c -0.004,0 -0.007,0.003 -0.007,0.008 0,10e-4 0,0.003 0.002,0.005 z"
                 style="fill:#000000;fill-opacity:1;fill-rule:nonzero;stroke:none"
                 id="path3326" />
              <path
                 d="m 42.183,47.704 -1.125,1.213 C 33.867,46.535 28.802,40.079 28.199,32.528 c -0.326,-4.19 0.774,-8.366 3.123,-11.85 0.582,-0.858 1.248,-1.655 1.99,-2.379 0.438,0.265 0.862,0.553 1.271,0.862 -0.756,0.709 -1.432,1.498 -2.016,2.353 -2.161,3.207 -3.173,7.05 -2.872,10.905 0.574,7.198 5.549,13.287 12.488,15.285 z"
                 style="fill:#000000;fill-opacity:1;fill-rule:nonzero;stroke:none"
                 id="path3328" />
              <path
                 d="m 60.156,44.375 c -2.144,2.144 -4.778,3.735 -7.673,4.635 L 51.337,47.777 C 60.545,45.332 66.028,35.886 63.583,26.678 61.138,17.47 51.692,11.987 42.484,14.432 c -0.999,0.265 -1.972,0.62 -2.908,1.059 -0.404,-0.363 -0.823,-0.709 -1.256,-1.04 2.664,-1.368 5.615,-2.082 8.609,-2.084 0.464,0 0.931,0.016 1.396,0.052 10.325,0.787 18.058,9.795 17.271,20.12 -0.341,4.469 -2.271,8.667 -5.44,11.836 z"
                 style="fill:#000000;fill-opacity:1;fill-rule:nonzero;stroke:none"
                 id="path3330" />
            </g>
          </g>
        </g>
      </g>
    </g>
    <g
       id="g3270"
       transform="matrix(0.35277777,0,0,-0.35277777,61.635067,190.82117)">
      <g
         id="g3272"
         clip-path="url(#clipPath3276)">
        <g
           id="g3278"
           transform="matrix(0.60417,-1.88e-7,-7.54e-7,0.61458,481.5,130.5)">
          <g
             id="g3280"
             transform="scale(0.98955,0.9895)">
            <g
               id="g3282"
               clip-path="url(#clipPath3286)">
              <path
                 d="m 23.647,29.617 c 0,-0.828 -0.672,-1.5 -1.5,-1.5 -0.829,0 -1.5,0.672 -1.5,1.5 0,0.828 0.671,1.5 1.5,1.5 0.828,0 1.5,-0.672 1.5,-1.5 z"
                 style="fill:#000000;fill-opacity:1;fill-rule:nonzero;stroke:none"
                 id="path3288" />
              <path
                 d="m 26.647,41.992 c 0,-0.621 -0.504,-1.125 -1.125,-1.125 -0.622,0 -1.125,0.504 -1.125,1.125 0,0.621 0.503,1.125 1.125,1.125 0.621,0 1.125,-0.504 1.125,-1.125 z"
                 style="fill:#000000;fill-opacity:1;fill-rule:nonzero;stroke:none"
                 id="path3290" />
              <path
                 d="m 30.397,35.242 c 0,-0.621 -0.504,-1.125 -1.125,-1.125 -0.622,0 -1.125,0.504 -1.125,1.125 0,0.621 0.503,1.125 1.125,1.125 0.621,0 1.125,-0.504 1.125,-1.125 z"
                 style="fill:#000000;fill-opacity:1;fill-rule:nonzero;stroke:none"
                 id="path3292" />
              <path
                 d="m 46.897,29.992 c 0,-0.621 -0.504,-1.125 -1.125,-1.125 -0.622,0 -1.125,0.504 -1.125,1.125 0,0.621 0.503,1.125 1.125,1.125 0.621,0 1.125,-0.504 1.125,-1.125 z"
                 style="fill:#000000;fill-opacity:1;fill-rule:nonzero;stroke:none"
                 id="path3294" />
              <path
                 d="m 49.147,37.117 c 0,-0.828 -0.672,-1.5 -1.5,-1.5 -0.829,0 -1.5,0.672 -1.5,1.5 0,0.828 0.671,1.5 1.5,1.5 0.828,0 1.5,-0.672 1.5,-1.5 z"
                 style="fill:#000000;fill-opacity:1;fill-rule:nonzero;stroke:none"
                 id="path3296" />
              <path
                 d="m 36.397,63.367 c 0.414,0 0.75,0.336 0.75,0.75 v 3.75 c 0,0.414 -0.336,0.75 -0.75,0.75 -0.414,0 -0.75,-0.336 -0.75,-0.75 v -3.75 c 0,-0.414 0.336,-0.75 0.75,-0.75 z"
                 style="fill:#000000;fill-opacity:1;fill-rule:nonzero;stroke:none"
                 id="path3298" />
              <path
                 d="m 32.693,63.386 c 0.287,-0.298 0.762,-0.307 1.06,-0.019 0.298,0.288 0.306,0.763 0.018,1.061 -0.006,0.006 -0.012,0.012 -0.018,0.018 l -2.652,2.652 c -0.298,0.288 -0.773,0.28 -1.06,-0.018 -0.281,-0.291 -0.281,-0.752 0,-1.042 z"
                 style="fill:#000000;fill-opacity:1;fill-rule:nonzero;stroke:none"
                 id="path3300" />
              <path
                 d="m 39.571,63.166 c 0.199,0 0.389,0.079 0.53,0.22 l 2.652,2.652 c 0.298,0.287 0.306,0.762 0.018,1.06 -0.287,0.298 -0.762,0.306 -1.06,0.019 -0.006,-0.006 -0.013,-0.013 -0.019,-0.019 l -2.651,-2.652 c -0.293,-0.293 -0.293,-0.768 0,-1.06 0.14,-0.141 0.331,-0.22 0.53,-0.22 z"
                 style="fill:#000000;fill-opacity:1;fill-rule:nonzero;stroke:none"
                 id="path3302" />
              <path
                 d="M 50.436,9.6669 C 49.905,9.138 49.256,8.7432 48.542,8.5149 L 46.417,7.7507 46.392,7.7409 c -1.742,-0.6982 -1.98,-1.5705 -1.875,-2.181 0.204,-1.1437 1.875,-1.4512 3.619,-1.4512 1.321,0.0201 2.639,0.1468 3.939,0.3787 1.2,0.1988 7.172,1.2998 6.804,3.534 -0.102,0.6105 -0.616,1.3538 -2.52,1.4333 l -2.277,0.0127 c -0.744,-0.0198 -1.483,0.1375 -2.154,0.459 l -0.12,0.5996 -1.875,10.92 c 0.726,0.167 1.419,0.454 2.051,0.849 2.692,1.712 4.088,4.876 3.538,8.019 l -6.777,30.985 c -0.11,0.607 -0.646,1.042 -1.262,1.025 -0.085,0 -0.171,-0.008 -0.255,-0.023 L 36.719,60.434 c -0.112,-0.021 -0.222,-0.056 -0.326,-0.104 -0.104,0.048 -0.214,0.083 -0.326,0.104 l -10.509,1.867 c -0.084,0.015 -0.17,0.023 -0.255,0.023 -0.616,0.017 -1.152,-0.418 -1.262,-1.025 L 17.265,30.314 c -0.551,-3.14 0.843,-6.303 3.532,-8.016 0.631,-0.395 1.324,-0.683 2.05,-0.85 L 20.972,10.523 20.849,9.9234 C 20.173,9.5997 19.429,9.4431 18.68,9.4667 L 16.394,9.4532 c -1.875,-0.0788 -2.39,-0.825 -2.491,-1.4333 -0.368,-2.2335 5.602,-3.3345 6.793,-3.5317 1.296,-0.2386 2.61,-0.3658 3.927,-0.3803 0.3,0 0.593,0.009 0.866,0.027 0.631,0.042 2.55,0.1695 2.775,1.425 0.108,0.6098 -0.128,1.482 -1.875,2.181 l -2.169,0.78 c -0.707,0.2282 -1.35,0.6213 -1.875,1.1468 l 1.977,11.5053 c 0.374,-0.059 0.752,-0.091 1.132,-0.094 0.392,-0.001 0.783,0.036 1.168,0.11 3.181,0.641 5.646,3.163 6.213,6.359 l 3.551,25.884 c 0.004,0.03 0.011,0.03 0.015,0 l 3.551,-25.884 c 0.566,-3.196 3.031,-5.718 6.213,-6.359 0.385,-0.074 0.776,-0.111 1.168,-0.11 0.379,0.003 0.757,0.035 1.131,0.094 l 1.868,-10.896 z m -26.7,-2.5642 2.113,-0.759 c 0.306,-0.1116 0.594,-0.2689 0.854,-0.4665 0.006,-0.0045 0.005,-0.0098 0,-0.0128 -0.6,-0.258 -2.619,-0.45 -5.749,0.1035 -3.121,0.5145 -4.965,1.365 -5.46,1.812 -0.004,0.0012 -0.006,0.0051 -0.005,0.0087 10e-4,0.0019 0.003,0.0034 0.005,0.0041 0.301,0.108 0.618,0.1628 0.939,0.162 l 2.238,0.0127 c 0.929,-0.0054 1.85,0.1764 2.708,0.5348 0.684,-0.62 1.485,-1.0957 2.357,-1.3988 z m 7.617,20.6803 c -0.474,-2.572 -2.462,-4.599 -5.025,-5.122 -0.289,-0.056 -0.583,-0.083 -0.877,-0.082 -0.371,0.002 -0.741,0.037 -1.105,0.103 l -0.718,0.128 c -0.718,0.113 -1.406,0.368 -2.025,0.75 -2.172,1.379 -3.304,3.928 -2.871,6.464 l 3.57,16.322 c 0.922,-0.301 1.884,-0.46 2.854,-0.471 1.226,0.035 2.44,0.264 3.595,0.678 1.604,0.498 3.019,0.918 5.19,0.129 z m 2.802,20.424 c -2.484,0.817 -4.19,0.292 -5.844,-0.22 -1.814,-0.73 -3.829,-0.788 -5.682,-0.165 l 2.837,12.975 10.168,-1.81 z M 47.32,60.794 50.156,47.819 c -1.853,-0.623 -3.867,-0.565 -5.681,0.165 -1.656,0.512 -3.362,1.037 -5.844,0.22 L 37.152,58.987 Z M 46.455,22.661 c -2.563,0.523 -4.551,2.55 -5.025,5.122 l -2.593,18.9 c 2.171,0.787 3.584,0.368 5.191,-0.13 1.155,-0.414 2.368,-0.644 3.595,-0.678 0.969,0.011 1.932,0.17 2.853,0.471 l 3.57,-16.322 C 54.479,27.488 53.347,24.939 51.175,23.56 50.557,23.178 49.868,22.924 49.15,22.81 l -0.717,-0.128 c -0.365,-0.066 -0.734,-0.101 -1.105,-0.103 -0.293,-0.001 -0.585,0.027 -0.873,0.082 z M 51.824,5.9672 C 48.721,5.4159 46.708,5.6049 46.095,5.8607 46.091,5.8629 46.09,5.8675 46.093,5.871 c 0,10e-4 10e-4,0.0018 0.002,0.0024 0.253,0.2039 0.539,0.3631 0.845,0.471 l 2.093,0.75 C 49.912,7.398 50.72,7.8761 51.409,8.4999 52.26,8.143 53.174,7.9611 54.097,7.9652 l 2.231,-0.012 c 0.331,-0.0022 0.66,-0.0545 0.975,-0.1553 0.007,0 0.008,-0.0075 0,-0.0127 -0.485,-0.4433 -2.332,-1.299 -5.479,-1.818 z"
                 style="fill:#000000;fill-opacity:1;fill-rule:nonzero;stroke:none"
                 id="path3304" />
            </g>
          </g>
        </g>
      </g>
    </g>
    <g
       id="g3332"
       transform="matrix(0.35277777,0,0,-0.35277777,33.057492,190.29204)">
      <g
         id="g3334"
         clip-path="url(#clipPath3338)">
        <g
           id="g3340"
           transform="matrix(0.45833,0,-7.54e-7,0.45833,661.5,81)">
          <g
             id="g3342"
             transform="scale(0.98955,0.9895)">
            <g
               id="g3344"
               clip-path="url(#clipPath3348)">
              <path
                 d="m 22.265,40.585 c 0.793,0.011 1.587,-0.053 2.369,-0.19 l 1.246,-0.25 c 0.856,-0.171 1.639,-0.599 2.244,-1.228 l 2.7,-2.797 1.089,1.031 -2.71,2.808 c -0.818,0.848 -1.874,1.426 -3.028,1.658 l -1.246,0.25 c -0.876,0.157 -1.765,0.23 -2.654,0.219 -2.332,0.015 -4.934,1.158 -7.581,3.805 -3.9,3.997 -8.2147,10.181 -9.45,11.99 -0.2021,0.298 -0.164,0.698 0.0908,0.952 l 0.108,0.108 c 0.2928,0.293 0.7676,0.293 1.0605,0 L 18.247,47.198 c 0.357,-0.356 0.935,-0.356 1.292,0 0.357,0.357 0.357,0.936 0,1.293 L 7.7955,60.232 c -0.2928,0.293 -0.2928,0.768 0,1.06 l 0.6615,0.663 c 0.2929,0.292 0.7676,0.292 1.0605,0 L 21.26,50.213 c 0.356,-0.357 0.935,-0.357 1.292,0 0.357,0.357 0.357,0.935 0,1.292 L 10.81,63.246 c -0.293,0.293 -0.293,0.768 0,1.061 l 0.661,0.662 c 0.293,0.293 0.768,0.293 1.061,0 L 24.274,53.227 c 0.341,-0.372 0.919,-0.396 1.291,-0.055 0.371,0.341 0.396,0.919 0.054,1.291 -0.017,0.019 -0.035,0.037 -0.054,0.054 L 13.822,66.26 c -0.293,0.293 -0.293,0.768 0,1.061 l 0.112,0.113 c 0.141,0.141 0.332,0.22 0.531,0.22 0.149,0 0.294,-0.044 0.417,-0.127 4.244,-2.819 8.234,-6.004 11.925,-9.518 2.658,-2.659 3.8,-5.273 3.806,-7.613 -0.016,-0.907 0.045,-1.815 0.182,-2.712 l 0.292,-1.68 c 0.149,-0.859 0.57,-1.648 1.2,-2.25 l 3.225,-3.087 1.061,1.061 -3.248,3.109 c -0.399,0.382 -0.665,0.881 -0.758,1.425 l -0.291,1.681 c -0.123,0.814 -0.176,1.637 -0.16,2.46 -0.008,2.902 -1.475,5.9 -4.245,8.669 -3.761,3.581 -7.827,6.827 -12.152,9.702 -0.893,0.597 -2.084,0.48 -2.843,-0.279 l -0.112,-0.112 c -0.448,-0.448 -0.687,-1.064 -0.656,-1.697 -0.035,0 -0.07,0 -0.106,0 -0.598,10e-4 -1.17,-0.236 -1.591,-0.66 L 9.7493,65.364 C 9.3256,64.943 9.0881,64.371 9.09,63.773 c 0,-0.034 0,-0.069 0,-0.105 -0.0345,0 -0.0697,0 -0.105,0 C 8.3879,63.67 7.8151,63.433 7.3943,63.009 L 6.7328,62.347 C 6.2844,61.9 6.0463,61.284 6.0773,60.651 c -0.0353,0 -0.0705,0 -0.1065,0 C 5.3737,60.653 4.8008,60.415 4.38,59.992 L 4.2728,59.885 C 3.5072,59.121 3.3938,57.92 4.0028,57.026 5.253,55.207 9.6353,48.924 13.621,44.842 c 2.77,-2.77 5.755,-4.238 8.644,-4.257 z"
                 style="fill:#000000;fill-opacity:1;fill-rule:nonzero;stroke:none"
                 id="path3350" />
              <path
                 d="M 47.883,30.901 46.884,29.78 64.942,12.491 C 66.273,11.226 66.326,9.1218 65.06,7.791 63.795,6.4602 61.691,6.4071 60.36,7.6723 60.323,7.7078 60.286,7.7442 60.25,7.7814 L 40.758,27.983 c -0.319,0.083 -0.647,0.177 -0.995,0.3 L 39.088,27.556 59.171,6.7419 c 1.851,-1.9164 4.905,-1.9697 6.821,-0.1189 1.917,1.8508 1.97,4.905 0.119,6.821 -0.043,0.045 -0.087,0.089 -0.132,0.132 z"
                 style="fill:#000000;fill-opacity:1;fill-rule:nonzero;stroke:none"
                 id="path3352" />
              <path
                 d="m 68.54,64.342 c -0.664,0.894 -1.705,1.431 -2.818,1.453 H 65.647 C 64.472,65.793 63.346,65.322 62.521,64.486 L 35.071,37.036 8.1608,11.593 C 6.2417,9.7779 6.1574,6.7508 7.9724,4.8318 8.8755,3.8769 10.132,3.3358 11.446,3.3354 c 1.33,0.0027 2.599,0.5574 3.505,1.5315 L 39.164,30.944 c 1.11,-0.561 2.319,-0.896 3.559,-0.988 0.755,-0.037 1.489,0.254 2.014,0.797 l 16.732,18.783 c 4.367,4.902 6.959,8.788 7.703,11.55 0.298,1.125 0.065,2.325 -0.632,3.256 z M 67.724,61.477 C 67.237,59.667 65.529,56.348 60.349,50.534 L 43.636,31.771 c -0.247,-0.229 -0.578,-0.343 -0.913,-0.315 -1.226,0 -3.091,0.919 -3.918,1.305 L 13.852,5.8847 C 12.613,4.5612 10.536,4.4923 9.2129,5.7309 7.8894,6.9693 7.8205,9.0462 9.059,10.37 c 0.0428,0.046 0.0869,0.09 0.1323,0.133 L 36.111,35.961 63.576,63.426 c 0.545,0.554 1.288,0.867 2.065,0.869 h 0.051 c 1.225,-0.058 2.171,-1.1 2.112,-2.325 -0.008,-0.167 -0.035,-0.332 -0.08,-0.493 z"
                 style="fill:#000000;fill-opacity:1;fill-rule:nonzero;stroke:none"
                 id="path3354" />
            </g>
          </g>
        </g>
      </g>
    </g>
    <g
       id="g3156"
       transform="matrix(0.35277777,0,0,-0.35277777,19.296462,191.08576)">
      <g
         id="g3158"
         clip-path="url(#clipPath3162)">
        <g
           id="g3164"
           transform="matrix(0.60417,-1.88e-7,-7.54e-7,0.61458,789,128.25)">
          <g
             id="g3166"
             transform="scale(0.98955,0.9895)">
            <g
               id="g3168"
               clip-path="url(#clipPath3172)">
              <path
                 d="m 35.155,40.742 -3.493,-1.75 -3.037,5.018 c -0.397,0.644 -1.017,1.119 -1.741,1.334 l -10.34,2.955 c -1.033,0.228 -2.111,-0.069 -2.881,-0.792 l -3.508,-3.51 -2.4262,3.15 C 6.755,48.408 4.9637,48.684 3.6555,47.775 2.4768,46.754 2.2647,45.005 3.165,43.732 l 4.4063,-5.876 0.0682,-0.075 c 0.5411,-0.638 1.314,-1.035 2.148,-1.103 0.8385,-0.027 1.6565,0.261 2.2925,0.807 l 2.274,2.273 c 0.01,0.011 0.015,0.008 0.012,-0.007 l -1.913,-7.229 c -0.193,-0.549 -0.304,-1.123 -0.331,-1.705 0.054,-1.039 0.399,-2.042 0.995,-2.895 l 3.937,-6.33 -2.557,-9.105 c -0.403,-1.54 0.434,-3.1339 1.932,-3.6751 0.058,-0.0297 0.123,-0.0442 0.189,-0.042 0.04,-0.009 0.085,-0.0262 0.132,-0.0412 0.169,-0.066 0.348,-0.1037 0.53,-0.1118 1.356,-0.0824 2.557,0.8669 2.791,2.2051 l 2.932,10.264 c 0.18,0.802 0.042,1.642 -0.387,2.343 l -0.807,1.281 c -0.009,0.014 -0.004,0.018 0.01,0.01 l 2.789,-1.674 v -10.05 c 0.048,-1.248 0.799,-2.362 1.938,-2.875 1.545,-0.5501 3.243,0.256 3.794,1.801 0.111,0.311 0.169,0.639 0.172,0.97 v 11.754 c -0.039,1.02 -0.553,1.964 -1.39,2.55 l -5.815,3.517 2.128,6.948 2.509,-4.144 c 0.538,-0.889 1.512,-1.42 2.55,-1.393 0.476,0.03 0.94,0.158 1.364,0.375 l 5.874,2.939 c 0.758,0.367 1.332,1.028 1.59,1.829 0.221,0.718 0.135,1.496 -0.239,2.148 -0.787,1.37 -2.471,1.939 -3.928,1.327 z m 2.727,-3.04 C 37.75,37.293 37.454,36.958 37.065,36.776 l -5.874,-2.938 c -0.217,-0.112 -0.452,-0.185 -0.694,-0.215 -0.513,-0.027 -0.999,0.229 -1.268,0.666 l -3.367,5.564 c -0.115,0.176 -0.289,0.304 -0.491,0.364 -0.382,0.084 -0.765,-0.139 -0.879,-0.513 l -2.791,-9.112 c -0.086,-0.328 0.047,-0.675 0.33,-0.862 l 6.254,-3.778 c 0.424,-0.307 0.691,-0.786 0.727,-1.309 V 13.112 c -0.02,-0.477 -0.208,-0.933 -0.531,-1.285 -0.587,-0.524 -1.488,-0.474 -2.013,0.113 -0.234,0.262 -0.363,0.601 -0.362,0.952 v 10.575 c -0.014,0.259 -0.149,0.497 -0.364,0.643 l -5.874,3.525 c -0.356,0.213 -0.816,0.098 -1.029,-0.257 -0.146,-0.243 -0.143,-0.546 0.008,-0.786 l 2.475,-3.934 c 0.22,-0.355 0.3,-0.779 0.225,-1.19 L 18.613,11.189 c -0.009,-0.033 -0.016,-0.066 -0.021,-0.1 -0.11,-0.601 -0.657,-1.021 -1.266,-0.972 -0.033,0.009 -0.068,0.022 -0.104,0.034 -0.112,0.041 -0.228,0.072 -0.345,0.095 -0.733,0.297 -1.132,1.09 -0.933,1.855 l 2.643,9.402 c 0.046,0.203 0.016,0.417 -0.084,0.6 l -4.113,6.614 c -0.451,0.613 -0.718,1.341 -0.768,2.1 0.029,0.435 0.12,0.864 0.268,1.275 l 2.645,9.99 c 0.106,0.4 -0.133,0.811 -0.533,0.917 -0.004,10e-4 -0.007,0.002 -0.01,0.002 -0.264,0.046 -0.535,-0.034 -0.732,-0.216 L 11.02,38.542 C 10.666,38.277 10.229,38.147 9.7875,38.174 9.3764,38.257 9.0058,38.478 8.7375,38.8 l -4.35,5.798 c -0.4343,0.61 -0.3656,1.444 0.1628,1.975 0.6535,0.43 1.5286,0.276 1.9965,-0.351 l 2.9377,-3.82 c 0.1319,-0.171 0.3311,-0.277 0.5465,-0.291 0.216,-0.014 0.427,0.065 0.579,0.218 l 4.112,4.117 c 0.4,0.353 0.943,0.5 1.467,0.397 l 10.308,-2.945 c 0.359,-0.121 0.664,-0.365 0.862,-0.689 l 3.375,-5.583 c 0.202,-0.333 0.625,-0.456 0.975,-0.283 l 4.072,2.039 c 0.748,0.275 1.586,-0.024 1.991,-0.711 0.17,-0.294 0.209,-0.645 0.11,-0.969 z"
                 style="fill:#000000;fill-opacity:1;fill-rule:nonzero;stroke:none"
                 id="path3174" />
              <path
                 d="m 23.819,47.424 c 2.426,-0.564 4.851,0.946 5.415,3.373 0.156,0.673 0.156,1.372 0,2.045 -0.461,1.626 -1.731,2.897 -3.357,3.356 -2.427,0.564 -4.852,-0.946 -5.415,-3.373 -0.156,-0.673 -0.156,-1.372 0,-2.044 0.46,-1.626 1.731,-2.897 3.357,-3.357 z m 0.215,7.28 c 1.602,0.446 3.262,-0.492 3.708,-2.094 0.147,-0.53 0.146,-1.089 -0.002,-1.618 -0.326,-0.981 -1.096,-1.751 -2.077,-2.078 -1.603,-0.445 -3.263,0.493 -3.708,2.095 -0.146,0.528 -0.146,1.086 0.001,1.614 0.325,0.983 1.095,1.755 2.078,2.081 z"
                 style="fill:#000000;fill-opacity:1;fill-rule:nonzero;stroke:none"
                 id="path3176" />
              <path
                 d="m 47.07,54.926 c 2.427,-0.564 4.851,0.946 5.415,3.373 0.157,0.673 0.157,1.372 0,2.045 -0.46,1.626 -1.731,2.896 -3.357,3.357 -2.427,0.563 -4.852,-0.948 -5.416,-3.375 -0.156,-0.672 -0.155,-1.371 10e-4,-2.043 0.46,-1.626 1.731,-2.897 3.357,-3.357 z m 0.214,7.281 c 1.602,0.445 3.262,-0.492 3.707,-2.094 0.147,-0.528 0.147,-1.087 0,-1.615 -0.326,-0.982 -1.096,-1.752 -2.078,-2.078 -1.602,-0.445 -3.262,0.493 -3.707,2.096 -0.146,0.527 -0.146,1.085 10e-4,1.612 0.326,0.982 1.096,1.752 2.077,2.079 z"
                 style="fill:#000000;fill-opacity:1;fill-rule:nonzero;stroke:none"
                 id="path3178" />
              <path
                 d="m 69.081,55.082 c -1.194,1.021 -2.971,0.956 -4.087,-0.15 l -2.559,-2.559 -3.856,2.829 c -0.727,0.56 -1.689,0.716 -2.556,0.413 l -10.262,-2.93 c -0.445,-0.154 -0.846,-0.416 -1.165,-0.764 l -3.579,-3.58 h -4.551 c -1.244,-0.047 -2.353,-0.794 -2.864,-1.929 -0.55,-1.539 0.251,-3.232 1.789,-3.782 0.312,-0.111 0.639,-0.169 0.97,-0.172 h 5.843 c 0.731,0.032 1.435,0.28 2.025,0.713 l 0.111,0.091 3.091,3.092 2.496,-7.369 -6.356,-4.193 C 42.636,34.159 42.108,33.077 42.185,31.95 l 0.008,-0.099 1.46,-10.229 c 0.215,-1.456 1.462,-2.537 2.934,-2.543 h 0.292 l 0.084,0.004 c 0.781,0.105 1.487,0.519 1.959,1.15 0.477,0.624 0.692,1.409 0.6,2.188 l -1.245,8.442 3.386,2.229 c 0.011,0.009 0.016,0.004 0.01,-0.009 L 51.166,31.976 51.139,31.907 C 50.951,31.424 50.89,30.902 50.959,30.389 L 52.42,20.161 c 0.214,-1.456 1.46,-2.538 2.932,-2.544 h 0.293 l 0.084,0.004 c 1.617,0.229 2.754,1.709 2.559,3.33 l -1.287,9.58 3.274,7.406 c 0.234,0.562 0.356,1.165 0.357,1.774 -0.038,0.559 -0.145,1.111 -0.319,1.644 L 58.54,48.01 c 0,0.011 0,0.015 0.012,0.007 l 2.374,-1.78 c 1.196,-0.802 2.781,-0.704 3.868,0.24 l 4.383,4.384 c 1.141,1.092 1.181,2.903 0.089,4.044 -0.059,0.062 -0.121,0.121 -0.185,0.177 z m -0.965,-3.161 -4.332,-4.338 c -0.562,-0.482 -1.376,-0.532 -1.992,-0.122 l -4.091,3.068 c -0.332,0.248 -0.802,0.18 -1.049,-0.152 -0.137,-0.184 -0.183,-0.419 -0.125,-0.641 l 2.349,-8.805 c 0.133,-0.402 0.219,-0.819 0.255,-1.241 -0.004,-0.393 -0.082,-0.782 -0.228,-1.147 l -3.36,-7.599 c -0.05,-0.127 -0.07,-0.265 -0.057,-0.402 l 1.311,-9.784 c 0.076,-0.773 -0.441,-1.48 -1.2,-1.641 h -0.241 c -0.727,0.003 -1.342,0.537 -1.448,1.255 l -1.461,10.22 c -0.037,0.27 -0.002,0.544 0.101,0.796 l 1.575,3.436 c 0.118,0.281 0.077,0.603 -0.106,0.845 -0.248,0.28 -0.663,0.334 -0.975,0.128 l -5.991,-3.945 c -0.231,-0.17 -0.356,-0.45 -0.329,-0.736 l 1.312,-8.897 c 0.039,-0.386 -0.073,-0.772 -0.312,-1.077 -0.217,-0.296 -0.539,-0.497 -0.9,-0.563 h -0.239 c -0.727,0.004 -1.342,0.537 -1.45,1.256 l -1.447,10.171 c -0.035,0.587 0.221,1.154 0.685,1.516 l 6.866,4.529 c 0.274,0.196 0.394,0.544 0.3,0.867 l -3.068,9.06 c -0.133,0.393 -0.559,0.603 -0.951,0.471 -0.109,-0.038 -0.209,-0.099 -0.29,-0.181 l -3.893,-3.891 c -0.332,-0.24 -0.723,-0.385 -1.131,-0.419 h -5.625 c -0.474,0.019 -0.925,0.205 -1.275,0.525 -0.519,0.584 -0.467,1.478 0.117,1.998 0.259,0.23 0.593,0.357 0.94,0.357 h 4.967 c 0.197,0.011 0.384,0.089 0.53,0.22 l 3.803,3.804 c 0.147,0.174 0.335,0.308 0.547,0.389 l 10.252,2.93 c 0.411,0.164 0.879,0.094 1.225,-0.183 l 4.382,-3.215 c 0.302,-0.208 0.709,-0.177 0.975,0.075 l 3.055,3.059 c 0.562,0.563 1.475,0.563 2.037,0 0.263,-0.263 0.415,-0.618 0.422,-0.99 -0.006,-0.381 -0.165,-0.743 -0.44,-1.006 z"
                 style="fill:#000000;fill-opacity:1;fill-rule:nonzero;stroke:none"
                 id="path3180" />
            </g>
          </g>
        </g>
      </g>
    </g>
  </g>
</svg>
